<svg width="60" height="60" viewBox="0 0 60 60" fill="none" xmlns="http://www.w3.org/2000/svg">
<path d="M58.7846 53.1685H47.9926V28.3756H53.1299C53.7111 28.3756 54.1823 27.9045 54.1823 27.3232V23.6885H58.9006C58.9019 23.6885 58.9025 23.6885 58.9035 23.6885C59.4848 23.6885 59.9559 23.2174 59.9559 22.6361C59.9559 22.2681 59.7671 21.9442 59.4811 21.7562L30.6059 0.208875C30.2324 -0.069625 29.7205 -0.069625 29.347 0.208875L0.423047 21.7926C0.0596801 22.0639 -0.0892199 22.5374 0.0536801 22.9677C0.196513 23.398 0.59908 23.6885 1.05248 23.6885H5.77078V27.3232C5.77078 27.9045 6.24195 28.3756 6.82318 28.3756H11.9603V53.1685H1.16861C0.587347 53.1685 0.116213 53.6395 0.116213 54.2209V58.8057C0.116213 59.3869 0.587347 59.8581 1.16861 59.8581H58.7846C59.3659 59.8581 59.837 59.3868 59.837 58.8057V54.2209C59.837 53.6395 59.3659 53.1685 58.7846 53.1685ZM29.9764 2.36551L55.7306 21.5837H4.22241L29.9764 2.36551ZM43.408 53.1329V28.8341H45.8878V53.1329H43.408ZM41.3032 53.1685H33.3213V28.3756H41.3032V53.1685ZM28.7364 28.8341H31.2165V53.1329H28.7364V28.8341ZM7.87555 23.7908H52.0775V26.2708H7.87555V23.7908ZM16.5452 28.8341V53.1329H14.0651V28.8341H16.5452ZM18.65 28.3756H26.6316V53.1685H18.65V28.3756ZM57.7322 57.7533H2.22098V55.2733H57.7322V57.7533Z" fill="white"/>
<path d="M29.9779 18.877C27.187 18.877 24.9165 16.6064 24.9165 13.8155C24.9165 11.0245 27.187 8.75397 29.9779 8.75397C32.769 8.75397 35.0396 11.0245 35.0396 13.8155C35.0396 16.6064 32.769 18.877 29.9779 18.877ZM29.9779 10.8588C28.3476 10.8588 27.0213 12.1852 27.0213 13.8155C27.0213 15.4458 28.3476 16.7722 29.9779 16.7722C31.6084 16.7722 32.9348 15.4458 32.9348 13.8155C32.9348 12.1852 31.6084 10.8588 29.9779 10.8588Z" fill="white"/>
</svg>
